# xmcd
#
# Track frame offsets:
#	150
#	19400
#	39824
#	59200
#	77159
#	103607
#	118547
#	139747
#	162700
#	179927
#	203243
#	222470
#	240933
#	257094
#	278018
#	306998
#
# Disc length: 4420 seconds
#
# Revision: 0
# Processed by: cddbd v1.5.1PL0 Copyright (c) Steve Scherf et al.
# Submitted via: EZCDDA 4.3.3.2
#
DISCID=f3114210
DTITLE=Oleta Adams - The very best of Oleta Adams
DYEAR=1900
DGENRE=
TTITLE0=Rhythm of life
TTITLE1=Get here
TTITLE2=Window of hope
TTITLE3=I've got to sing my song
TTITLE4=Don't let the sun go down on me
TTITLE5=Never knew love
TTITLE6=We will meet again
TTITLE7=Hold me for a while
TTITLE8=Circle of one
TTITLE9=When love comes to the rescue
TTITLE10=I knew you when
TTITLE11=Lover's holiday
TTITLE12=I just had to hear your voice
TTITLE13=My heart won't lie
TTITLE14=Woman in chains
TTITLE15=Life keeps moving on
EXTD=
EXTT0=
EXTT1=
EXTT2=
EXTT3=
EXTT4=
EXTT5=
EXTT6=
EXTT7=
EXTT8=
EXTT9=
EXTT10=
EXTT11=
EXTT12=
EXTT13=
EXTT14=
EXTT15=
PLAYORDER=
